<?xml version="1.0" encoding="utf-8"?>
<!-- Generator: Adobe Illustrator 25.4.1, SVG Export Plug-In . SVG Version: 6.00 Build 0)  -->
<svg version="1.1" id="Layer_1" xmlns="http://www.w3.org/2000/svg" xmlns:xlink="http://www.w3.org/1999/xlink" x="0px" y="0px"
	 viewBox="0 0 154.6 57.7" style="enable-background:new 0 0 154.6 57.7;" xml:space="preserve">
<style type="text/css">
	.st0{fill:#231F20;}
	.st1{font-family:'PlayfairDisplay-Regular';}
	.st2{font-size:21px;}
	.st3{font-family:'Poppins-Regular';}
	.st4{font-size:20.7564px;}
</style>
<path class="st0" d="M53.1,28.3c0.5,2.1,0.1,4.3-1,6.2c-1.6,2.7-4,4.8-6.8,5.9c-1.9,0.8-3.9,1.3-6,1.3c-4,0-7.3-1.8-8.6-4.6
	c1.4-3.9,5.5-4.3,10.1-4.8C44.9,31.9,49.6,31.4,53.1,28.3 M53.5,27c-7.2,7.7-20.8,1.4-23.6,10.2c1.5,3.4,5.2,5.3,9.4,5.3
	c2.2,0,4.3-0.5,6.3-1.3C52.1,38.3,55.6,32,53.5,27L53.5,27z"/>
<path class="st0" d="M40.1,14.4c1.8,1.2,3.1,3,3.6,5.1c0.8,3,0.5,6.2-0.7,9c-2,4.9-6.2,8.4-10.3,8.4c-0.8,0-1.6-0.1-2.3-0.4
	c-1.7-3.7,0.8-6.9,3.8-10.5C36.8,22.7,39.8,19.1,40.1,14.4 M39.4,13.2c0.3,10.5-13.7,15.7-9.5,23.9c0.9,0.4,1.9,0.6,2.9,0.5
	c4.3,0,8.9-3.5,11-8.8C46.4,22.2,44.4,15.3,39.4,13.2z"/>
<path class="st0" d="M7.1,28.8c3.6,3,8.3,3.3,12.5,3.7c4.7,0.4,8.7,0.7,10.3,4.5c-1.3,3-4.7,4.8-8.9,4.8c-1.9,0-3.8-0.4-5.6-1.1
	C9.6,38.4,6.2,33.3,7.1,28.8 M6.8,27.5c-2,5.1,1.7,11.3,8.3,13.9c1.9,0.8,3.9,1.2,5.9,1.2c4.4,0,8.3-2,9.7-5.6
	C27.6,28.3,14.2,34.9,6.8,27.5L6.8,27.5z"/>
<path class="st0" d="M19.8,14.5c0.4,4.7,3.5,8.2,6.2,11.4c3.1,3.6,5.7,6.7,4.1,10.4c-0.8,0.3-1.7,0.5-2.5,0.5
	c-4.1,0-8.3-3.2-10.4-8.1C14.8,23.1,15.9,17,19.8,14.5 M20.5,13.3c-5,2.2-6.8,9.2-4,15.7c2.2,5.2,6.8,8.5,11,8.5
	c1.1,0,2.1-0.2,3.1-0.6C34.6,28.7,20.5,23.8,20.5,13.3z"/>
<path class="st0" d="M43.5,39.3H16.9l13.3-23L43.5,39.3z M17.7,38.8h24.9L30.2,17.3L17.7,38.8z"/>
<path class="st0" d="M30.2,20.9L26,16.8l4.1-4.1l4.1,4.1L30.2,20.9z M26.7,16.8l3.4,3.4l3.4-3.4l-3.4-3.4L26.7,16.8z"/>
<path class="st0" d="M30.2,55.3C15.7,55.3,4,43.6,4,29.2S15.7,3,30.2,3s26.2,11.7,26.2,26.2S44.6,55.3,30.2,55.3z M30.2,4
	C16.3,4,5,15.3,5,29.2s11.3,25.2,25.2,25.2S55.3,43,55.3,29.2S44,4,30.2,4z"/>
<text transform="matrix(1 0 0 1 81.5141 24.219)" class="st0 st1 st2">L</text>
<text transform="matrix(1 0 0 1 93.8623 24.219)" class="st0 st1 st2">A</text>
<text transform="matrix(1 0 0 1 106.6718 24.219)" class="st0 st1 st2">B</text>
<text transform="matrix(1 0 0 1 58.6805 45.7685)" class="st0 st3 st4">Mandala</text>
</svg>
